<?xml version="1.0" encoding="UTF-8" standalone="no"?>
<!-- Created with Inkscape (http://www.inkscape.org/) -->

<svg
   width="152.39999mm"
   height="128.5mm"
   viewBox="0 0 152.40001 128.50002"
   version="1.1"
   id="svg8"
   inkscape:version="1.1.1 (3bf5ae0, 2021-09-20)"
   sodipodi:docname="Pictogram.svg"
   xmlns:inkscape="http://www.inkscape.org/namespaces/inkscape"
   xmlns:sodipodi="http://sodipodi.sourceforge.net/DTD/sodipodi-0.dtd"
   xmlns:xlink="http://www.w3.org/1999/xlink"
   xmlns="http://www.w3.org/2000/svg"
   xmlns:svg="http://www.w3.org/2000/svg"
   xmlns:rdf="http://www.w3.org/1999/02/22-rdf-syntax-ns#"
   xmlns:cc="http://creativecommons.org/ns#"
   xmlns:dc="http://purl.org/dc/elements/1.1/">
  <defs
     id="defs2">
    <linearGradient
       inkscape:collect="always"
       id="linearGradient1424-5">
      <stop
         style="stop-color:#fb9268;stop-opacity:1"
         offset="0"
         id="stop1420" />
      <stop
         style="stop-color:#f4f169;stop-opacity:1"
         offset="1"
         id="stop1422" />
    </linearGradient>
    <rect
       x="515.53754"
       y="132.57588"
       width="42.638461"
       height="21.412607"
       id="rect32256" />
    <rect
       x="517.08125"
       y="63.878067"
       width="43.092048"
       height="18.594062"
       id="rect14052" />
    <color-profile
       name="Best-RGB"
       xlink:href="file:///usr/share/color/icc/colord/BestRGB.icc"
       id="color-profile973" />
    <color-profile
       name="Q2577W"
       xlink:href="../../../../../.local/share/icc/edid-05a341a7cbd8598c0494b32a9c2bf666.icc"
       id="color-profile975" />
    <linearGradient
       inkscape:collect="always"
       xlink:href="#linearGradient1424-5"
       id="linearGradient1217"
       gradientUnits="userSpaceOnUse"
       x1="155.0452"
       y1="236.07117"
       x2="-29.547604"
       y2="235.68858" />
  </defs>
  <sodipodi:namedview
     id="base"
     pagecolor="#ffffff"
     bordercolor="#666666"
     borderopacity="1.0"
     inkscape:pageopacity="0.0"
     inkscape:pageshadow="2"
     inkscape:zoom="1.6066596"
     inkscape:cx="216.90967"
     inkscape:cy="302.17975"
     inkscape:document-units="mm"
     inkscape:current-layer="layer1"
     showgrid="false"
     units="mm"
     inkscape:snap-bbox="true"
     inkscape:snap-page="true"
     inkscape:bbox-nodes="false"
     inkscape:snap-bbox-edge-midpoints="false"
     inkscape:window-width="2548"
     inkscape:window-height="1405"
     inkscape:window-x="0"
     inkscape:window-y="0"
     inkscape:window-maximized="1"
     inkscape:snap-bbox-midpoints="true"
     inkscape:snap-nodes="false"
     inkscape:pagecheckerboard="0"
     width="152.4mm">
    <inkscape:grid
       type="xygrid"
       id="grid130488" />
  </sodipodi:namedview>
  <metadata
     id="metadata5">
    <rdf:RDF>
      <cc:Work
         rdf:about="">
        <dc:format>image/svg+xml</dc:format>
        <dc:type
           rdf:resource="http://purl.org/dc/dcmitype/StillImage" />
      </cc:Work>
    </rdf:RDF>
  </metadata>
  <g
     inkscape:label="Layer 1"
     inkscape:groupmode="layer"
     id="layer1"
     transform="translate(0,-168.49998)"
     style="display:inline">
    <rect
       style="display:inline;opacity:1;fill:url(#linearGradient1217);fill-opacity:1;fill-rule:nonzero;stroke:none;stroke-width:1.452;stroke-linecap:butt;stroke-linejoin:miter;stroke-miterlimit:4;stroke-dasharray:none;stroke-dashoffset:0;stroke-opacity:1;paint-order:normal"
       id="rect420"
       width="152.39999"
       height="128.5"
       x="0.026283933"
       y="168.60637" />
    <g
       aria-label="Thom's Pictogram"
       id="text12751"
       style="font-size:4.23333px;line-height:1.25;font-family:'Adobe Symbol';-inkscape-font-specification:'Adobe Symbol, Normal';font-variant-ligatures:none;letter-spacing:0px;word-spacing:0px;display:inline;stroke-width:0.264583"
       transform="translate(0,1.0583333)">
      <path
         d="m 59.385534,169.36666 v -0.3266 h 2.325437 v 0.3266 h -0.967382 v 2.68304 h -0.39274 v -2.68304 z"
         id="path63278"
         style="display:inline" />
      <path
         d="m 63.027685,170.09426 q -0.183968,0 -0.324527,0.0992 -0.14056,0.0992 -0.221175,0.25838 v 1.59784 h -0.382406 v -3.175 h 0.382406 v 1.20509 q 0.254248,-0.30799 0.65939,-0.30799 0.330729,0 0.522966,0.18604 0.194303,0.18603 0.194303,0.62632 v 1.46554 H 63.474169 V 170.58 q 0,-0.26251 -0.115755,-0.37414 -0.113688,-0.11162 -0.330729,-0.11162 z"
         id="path63280" />
      <path
         d="m 64.32993,170.95623 v -0.0476 q 0,-0.48575 0.272851,-0.81028 0.272852,-0.3266 0.742073,-0.3266 0.473356,0 0.746207,0.3266 0.274919,0.32453 0.274919,0.81028 v 0.0476 q 0,0.48575 -0.274919,0.81028 -0.272851,0.32453 -0.742073,0.32453 -0.471288,0 -0.746207,-0.32453 -0.272851,-0.32453 -0.272851,-0.81028 z m 0.382405,-0.0476 v 0.0476 q 0,0.33279 0.157097,0.5767 0.159163,0.24392 0.479556,0.24392 0.314193,0 0.473356,-0.24392 0.159163,-0.24391 0.159163,-0.5767 v -0.0476 q 0,-0.32866 -0.159163,-0.57464 -0.159163,-0.24804 -0.47749,-0.24804 -0.316259,0 -0.475422,0.24804 -0.157097,0.24598 -0.157097,0.57464 z"
         id="path63282" />
      <path
         d="m 67.740572,170.09426 q -0.204639,0 -0.328662,0.0868 -0.124023,0.0868 -0.186035,0.22944 v 1.63918 h -0.384472 v -2.23656 h 0.363801 l 0.01034,0.24392 q 0.241845,-0.28526 0.661457,-0.28526 0.214974,0 0.382406,0.0868 0.169498,0.0847 0.258382,0.27285 0.111621,-0.16123 0.289387,-0.26045 0.179834,-0.0992 0.42168,-0.0992 0.359667,0 0.553971,0.19224 0.19637,0.19223 0.19637,0.61598 v 1.46968 h -0.384472 v -1.47381 q 0,-0.28112 -0.130225,-0.38034 -0.128157,-0.10129 -0.347265,-0.10129 -0.23151,0 -0.363802,0.1385 -0.132292,0.13642 -0.152962,0.33279 v 1.48415 h -0.382405 v -1.47175 q 0,-0.26251 -0.130225,-0.37207 -0.130224,-0.11162 -0.347265,-0.11162 z"
         id="path63284" />
      <path
         d="m 70.622047,168.8747 v 0.22738 l -0.04341,0.76067 h -0.26665 l 0.0021,-0.72553 v -0.26252 z"
         id="path63286" />
      <path
         d="m 72.242619,171.45645 q 0,-0.12402 -0.09302,-0.22117 -0.09095,-0.0992 -0.421679,-0.16537 -0.374137,-0.0785 -0.591178,-0.22324 -0.214974,-0.14469 -0.214974,-0.42168 0,-0.26458 0.225309,-0.45888 0.227377,-0.19431 0.603581,-0.19431 0.401008,0 0.626318,0.20464 0.225309,0.20464 0.225309,0.49403 h -0.382406 q 0,-0.1385 -0.121956,-0.26045 -0.121956,-0.12402 -0.347265,-0.12402 -0.237712,0 -0.341064,0.10335 -0.103353,0.10335 -0.103353,0.22531 0,0.12402 0.09922,0.2005 0.09922,0.0744 0.415479,0.1447 0.411344,0.0951 0.607714,0.24597 0.19637,0.1509 0.19637,0.42168 0,0.29559 -0.237711,0.47956 -0.235645,0.18397 -0.626318,0.18397 -0.444417,0 -0.680061,-0.22738 -0.235645,-0.22737 -0.235645,-0.50436 h 0.384473 q 0.0124,0.23771 0.181901,0.32866 0.171565,0.0889 0.349332,0.0889 0.233577,0 0.357601,-0.0909 0.124023,-0.0909 0.124023,-0.22945 z"
         id="path63288" />
      <path
         d="m 75.343203,170.86941 h -0.711067 v 1.18029 h -0.398942 v -3.00964 h 1.110009 q 0.51263,0 0.783414,0.25839 0.272851,0.25838 0.272851,0.65939 0,0.43615 -0.272851,0.67386 -0.270784,0.23771 -0.783414,0.23771 z m -0.711067,-1.50275 v 1.17822 h 0.711067 q 0.351399,0 0.504361,-0.1633 0.152962,-0.16329 0.152962,-0.41961 0,-0.23151 -0.152962,-0.41341 -0.152962,-0.1819 -0.504361,-0.1819 z"
         id="path63290" />
      <path
         d="m 76.848019,169.2199 q 0,-0.093 0.05581,-0.1571 0.05788,-0.0641 0.169499,-0.0641 0.109554,0 0.167431,0.0641 0.05994,0.0641 0.05994,0.1571 0,0.0889 -0.05994,0.15296 -0.05788,0.062 -0.167431,0.062 -0.111621,0 -0.169499,-0.062 -0.05581,-0.0641 -0.05581,-0.15296 z m 0.413411,0.59324 v 2.23656 h -0.384473 v -2.23656 z"
         id="path63292" />
      <path
         d="m 78.770381,171.77685 q 0.204638,0 0.3576,-0.12196 0.15503,-0.12196 0.169499,-0.31213 h 0.363802 q -0.01447,0.29973 -0.274919,0.52504 -0.260449,0.22324 -0.615982,0.22324 -0.504362,0 -0.750341,-0.3328 -0.243913,-0.33279 -0.243913,-0.78341 v -0.0868 q 0,-0.45062 0.243913,-0.78341 0.245979,-0.3328 0.750341,-0.3328 0.39274,0 0.634586,0.23358 0.241845,0.23151 0.256315,0.57671 H 79.29748 q -0.01447,-0.20671 -0.157096,-0.3514 -0.14056,-0.14469 -0.370003,-0.14469 -0.235645,0 -0.370003,0.11988 -0.132292,0.11989 -0.188102,0.30386 -0.05374,0.18397 -0.05374,0.37827 v 0.0868 q 0,0.19637 0.05374,0.38034 0.05374,0.18397 0.186035,0.30385 0.134358,0.11783 0.37207,0.11783 z"
         id="path63294" />
      <path
         d="m 81.03794,172.0497 q -0.04548,0.0145 -0.119889,0.0269 -0.07235,0.0145 -0.175699,0.0145 -0.212907,0 -0.363802,-0.13023 -0.150895,-0.13022 -0.150895,-0.46715 v -1.38699 h -0.409277 v -0.29353 h 0.409277 v -0.54363 h 0.382405 v 0.54363 h 0.417545 v 0.29353 H 80.61006 v 1.38906 q 0,0.17156 0.07441,0.2191 0.07441,0.0476 0.171566,0.0476 0.04754,0 0.09922,-0.008 0.05374,-0.0103 0.08061,-0.0165 z"
         id="path63296" />
      <path
         d="m 81.314925,170.95623 v -0.0476 q 0,-0.48575 0.272851,-0.81028 0.272852,-0.3266 0.742073,-0.3266 0.473356,0 0.746207,0.3266 0.274919,0.32453 0.274919,0.81028 v 0.0476 q 0,0.48575 -0.274919,0.81028 -0.272851,0.32453 -0.742073,0.32453 -0.471288,0 -0.746207,-0.32453 -0.272851,-0.32453 -0.272851,-0.81028 z m 0.382405,-0.0476 v 0.0476 q 0,0.33279 0.157096,0.5767 0.159164,0.24392 0.479557,0.24392 0.314193,0 0.473356,-0.24392 0.159163,-0.24391 0.159163,-0.5767 v -0.0476 q 0,-0.32866 -0.159163,-0.57464 -0.159163,-0.24804 -0.47749,-0.24804 -0.316259,0 -0.475423,0.24804 -0.157096,0.24598 -0.157096,0.57464 z"
         id="path63298" />
      <path
         d="m 85.626804,172.00216 q 0,0.44441 -0.264583,0.68626 -0.264583,0.24391 -0.682129,0.24391 -0.173632,0 -0.425813,-0.0848 -0.252181,-0.0847 -0.403076,-0.30386 l 0.200505,-0.22737 q 0.140559,0.17156 0.293521,0.23564 0.152963,0.0662 0.305925,0.0662 0.270784,0 0.432014,-0.15296 0.161231,-0.1509 0.161231,-0.44442 v -0.19637 q -0.227377,0.26665 -0.626318,0.26665 -0.403076,0 -0.640787,-0.32246 -0.237712,-0.32246 -0.237712,-0.81235 v -0.0434 q 0,-0.51263 0.235644,-0.82682 0.237712,-0.3142 0.646989,-0.3142 0.411344,0 0.63872,0.28939 l 0.0186,-0.24805 H 85.6268 Z m -1.504817,-1.04593 q 0,0.33279 0.138493,0.57257 0.14056,0.23771 0.450618,0.23771 0.204639,0 0.330729,-0.093 0.128158,-0.093 0.202572,-0.23771 v -1.01906 q -0.07235,-0.13849 -0.200505,-0.22944 -0.128157,-0.093 -0.328662,-0.093 -0.312125,0 -0.452685,0.24392 -0.14056,0.24184 -0.14056,0.57464 z"
         id="path63300" />
      <path
         d="m 87.100614,170.13974 q -0.19637,0 -0.322461,0.0889 -0.12609,0.0868 -0.188102,0.23358 v 1.5875 h -0.382405 v -2.23656 h 0.37207 l 0.0083,0.25632 q 0.08475,-0.13643 0.214974,-0.21704 0.132291,-0.0806 0.316259,-0.0806 0.107487,0 0.169499,0.0289 l -0.0021,0.35553 q -0.08475,-0.0165 -0.186035,-0.0165 z"
         id="path63302" />
      <path
         d="m 88.958898,172.0497 q -0.03721,-0.0806 -0.05374,-0.23565 -0.107487,0.11369 -0.268717,0.19637 -0.16123,0.0806 -0.367936,0.0806 -0.343131,0 -0.549837,-0.19224 -0.206705,-0.19223 -0.206705,-0.47129 0,-0.35966 0.272851,-0.5457 0.272851,-0.1881 0.733805,-0.1881 h 0.378271 v -0.17777 q 0,-0.19843 -0.119889,-0.31626 -0.117822,-0.11989 -0.3514,-0.11989 -0.217041,0 -0.351399,0.10749 -0.132292,0.10542 -0.132292,0.24598 h -0.382405 q 0,-0.23978 0.241846,-0.45062 0.241845,-0.21084 0.646988,-0.21084 0.363802,0 0.597379,0.18604 0.233577,0.18603 0.233577,0.56224 v 1.04179 q 0,0.11162 0.0186,0.23771 0.02067,0.12609 0.05994,0.21704 v 0.0331 z m -0.634586,-0.29352 q 0.206705,0 0.3576,-0.10336 0.152962,-0.10335 0.214974,-0.22944 v -0.46095 h -0.31626 q -0.684195,0 -0.684195,0.41341 0,0.15916 0.107487,0.27078 0.107487,0.10956 0.320394,0.10956 z"
         id="path63304" />
      <path
         d="m 90.77584,170.09426 q -0.204639,0 -0.328662,0.0868 -0.124024,0.0868 -0.186035,0.22944 v 1.63918 H 89.87667 v -2.23656 h 0.363802 l 0.01034,0.24392 q 0.241845,-0.28526 0.661457,-0.28526 0.214974,0 0.382406,0.0868 0.169498,0.0847 0.258382,0.27285 0.111621,-0.16123 0.289387,-0.26045 0.179834,-0.0992 0.42168,-0.0992 0.359667,0 0.553971,0.19224 0.19637,0.19223 0.19637,0.61598 v 1.46968 h -0.384473 v -1.47381 q 0,-0.28112 -0.130224,-0.38034 -0.128157,-0.10129 -0.347265,-0.10129 -0.231511,0 -0.363802,0.1385 -0.132292,0.13642 -0.152962,0.33279 v 1.48415 h -0.382406 v -1.47175 q 0,-0.26251 -0.130224,-0.37207 -0.130225,-0.11162 -0.347265,-0.11162 z"
         id="path63306" />
    </g>
    <g
       aria-label="Clock"
       id="text59731"
       style="font-size:4.23333px;line-height:1.25;font-family:'Adobe Symbol';-inkscape-font-specification:'Adobe Symbol, Normal';font-variant-ligatures:none;letter-spacing:0px;word-spacing:0px;stroke-width:0.264583"
       transform="translate(0,-2.1166667)">
      <path
         d="m 5.9462949,234.92361 h 0.3968747 q -0.045475,0.42788 -0.3224607,0.71314 -0.2769854,0.28525 -0.818554,0.28525 -0.5291662,0 -0.8516269,-0.38034 -0.3224606,-0.3824 -0.3224606,-1.01492 v -0.29972 q 0,-0.63252 0.3245277,-1.01493 0.3265948,-0.3824 0.8846998,-0.3824 0.5105627,0 0.7854811,0.28112 0.2749184,0.28112 0.3203936,0.72553 H 5.9462949 q -0.045475,-0.31419 -0.2025714,-0.49609 -0.1570962,-0.18397 -0.5064286,-0.18397 -0.3989417,0 -0.6056473,0.29352 -0.2067056,0.29353 -0.2067056,0.77308 v 0.30386 q 0,0.44442 0.1881021,0.75861 0.1881021,0.31212 0.5891108,0.31212 0.3803383,0 0.5353674,-0.17776 0.1570962,-0.17777 0.2087726,-0.4961 z"
         id="path63267" />
      <path
         d="m 7.2423389,232.70566 v 3.175 H 6.8578665 v -3.175 z"
         id="path63269" />
      <path
         d="m 7.7549687,234.78719 v -0.0475 q 0,-0.48576 0.2728513,-0.81029 0.2728513,-0.32659 0.7420729,-0.32659 0.4733558,0 0.7462071,0.32659 0.2749184,0.32453 0.2749184,0.81029 v 0.0475 q 0,0.48576 -0.2749184,0.81028 -0.2728513,0.32453 -0.742073,0.32453 -0.4712886,0 -0.746207,-0.32453 -0.2728513,-0.32452 -0.2728513,-0.81028 z m 0.3824052,-0.0475 v 0.0475 q 0,0.33279 0.1570963,0.57671 0.1591632,0.24391 0.4795568,0.24391 0.3141925,0 0.4733558,-0.24391 0.1591632,-0.24392 0.1591632,-0.57671 v -0.0475 q 0,-0.32867 -0.1591632,-0.57465 -0.1591633,-0.24804 -0.4774899,-0.24804 -0.3162595,0 -0.4754227,0.24804 -0.1570963,0.24598 -0.1570963,0.57465 z"
         id="path63271" />
      <path
         d="m 11.16561,235.60781 q 0.204639,0 0.357601,-0.12196 0.155029,-0.12195 0.169498,-0.31212 h 0.363802 q -0.01447,0.29972 -0.274918,0.52503 -0.260449,0.22324 -0.615983,0.22324 -0.504361,0 -0.750341,-0.33279 -0.243913,-0.3328 -0.243913,-0.78342 v -0.0868 q 0,-0.45062 0.243913,-0.78342 0.24598,-0.33279 0.750341,-0.33279 0.392741,0 0.634586,0.23357 0.241846,0.23151 0.256315,0.57671 h -0.363802 q -0.01447,-0.2067 -0.157096,-0.3514 -0.14056,-0.14469 -0.370003,-0.14469 -0.235644,0 -0.370003,0.11989 -0.132291,0.11989 -0.188102,0.30385 -0.05374,0.18397 -0.05374,0.37828 v 0.0868 q 0,0.19637 0.05374,0.38034 0.05374,0.18397 0.186035,0.30386 0.134359,0.11782 0.37207,0.11782 z"
         id="path63273" />
      <path
         d="m 13.887923,235.88066 -0.775146,-1.03766 -0.241845,0.25011 v 0.78755 h -0.384473 v -3.175 h 0.384473 v 1.91823 l 0.204638,-0.24391 0.694531,-0.73587 h 0.467154 l -0.872297,0.93224 0.973583,1.30431 z"
         id="path63275" />
    </g>
    <g
       aria-label="Lum"
       id="text126432"
       style="font-size:4.23333px;line-height:1.25;font-family:'Adobe Symbol';-inkscape-font-specification:'Adobe Symbol, Normal';font-variant-ligatures:none;letter-spacing:0px;word-spacing:0px;stroke-width:0.264583"
       transform="translate(0.11061592,0.23547992)">
      <path
         d="m 141.79371,290.33087 v 0.32453 h -1.82521 v -3.00964 h 0.39895 v 2.68511 z"
         id="path130314" />
      <path
         d="m 143.54244,290.6554 -0.008,-0.22118 q -0.10335,0.12402 -0.26458,0.1943 -0.16123,0.0682 -0.38861,0.0682 -0.32866,0 -0.53123,-0.19431 -0.20257,-0.1943 -0.20257,-0.64078 v -1.44281 h 0.38241 v 1.44694 q 0,0.30179 0.12609,0.40514 0.12815,0.10129 0.28525,0.10129 0.23358,0 0.37414,-0.0889 0.14056,-0.0889 0.20877,-0.23565 v -1.62884 h 0.38447 v 2.23656 z"
         id="path130316" />
      <path
         d="m 145.38419,288.69996 q -0.20464,0 -0.32866,0.0868 -0.12403,0.0868 -0.18604,0.22944 v 1.63918 h -0.38447 v -2.23656 h 0.3638 l 0.0103,0.24391 q 0.24184,-0.28525 0.66145,-0.28525 0.21498,0 0.38241,0.0868 0.1695,0.0847 0.25838,0.27285 0.11162,-0.16123 0.28939,-0.26045 0.17983,-0.0992 0.42168,-0.0992 0.35967,0 0.55397,0.19224 0.19637,0.19223 0.19637,0.61598 v 1.46968 h -0.38447 v -1.47382 q 0,-0.28111 -0.13023,-0.38033 -0.12815,-0.10129 -0.34726,-0.10129 -0.23151,0 -0.3638,0.13849 -0.1323,0.13643 -0.15297,0.3328 v 1.48415 h -0.3824 v -1.47175 q 0,-0.26251 -0.13023,-0.37207 -0.13022,-0.11162 -0.34726,-0.11162 z"
         id="path130318" />
    </g>
    <g
       aria-label="Scale"
       id="text56946"
       style="font-size:4.23333px;line-height:1.25;font-family:'Adobe Symbol';-inkscape-font-specification:'Adobe Symbol, Normal';font-variant-ligatures:none;letter-spacing:0px;word-spacing:0px;stroke-width:0.264583"
       transform="translate(-0.122765,1.5875)">
      <path
         d="m 141.14566,188.18013 q 0,-0.21083 -0.1447,-0.33486 -0.14469,-0.12402 -0.5705,-0.24804 -0.44649,-0.13023 -0.71107,-0.3328 -0.26458,-0.20464 -0.26458,-0.55604 0,-0.3514 0.27905,-0.58498 0.28112,-0.23357 0.74414,-0.23357 0.5085,0 0.78341,0.27905 0.27699,0.27905 0.27699,0.63045 h -0.39688 q 0,-0.25218 -0.16329,-0.41754 -0.1633,-0.16537 -0.50023,-0.16537 -0.31833,0 -0.47129,0.14056 -0.15296,0.13849 -0.15296,0.34727 0,0.19017 0.16536,0.31626 0.16743,0.12609 0.5395,0.22944 0.51057,0.14469 0.74828,0.35967 0.23978,0.21497 0.23978,0.56637 0,0.36794 -0.28732,0.58704 -0.28732,0.21911 -0.76275,0.21911 -0.27905,0 -0.5395,-0.10335 -0.26045,-0.10335 -0.42995,-0.30592 -0.16743,-0.20464 -0.16743,-0.50437 h 0.39688 q 0,0.30799 0.22531,0.44855 0.22531,0.14056 0.51469,0.14056 0.31213,0 0.47956,-0.12815 0.1695,-0.13023 0.1695,-0.34934 z"
         id="path130375" />
      <path
         d="m 142.89232,188.66796 q 0.20464,0 0.3576,-0.12196 0.15503,-0.12195 0.1695,-0.31212 h 0.3638 q -0.0145,0.29972 -0.27492,0.52503 -0.26045,0.22324 -0.61598,0.22324 -0.50436,0 -0.75034,-0.33279 -0.24391,-0.3328 -0.24391,-0.78342 v -0.0868 q 0,-0.45062 0.24391,-0.78342 0.24598,-0.33279 0.75034,-0.33279 0.39274,0 0.63459,0.23357 0.24184,0.23151 0.25631,0.57671 h -0.3638 q -0.0145,-0.2067 -0.1571,-0.3514 -0.14056,-0.14469 -0.37,-0.14469 -0.23564,0 -0.37,0.11989 -0.13229,0.11989 -0.1881,0.30385 -0.0537,0.18397 -0.0537,0.37828 v 0.0868 q 0,0.19637 0.0537,0.38034 0.0537,0.18397 0.18603,0.30386 0.13436,0.11782 0.37207,0.11782 z"
         id="path130377" />
      <path
         d="m 145.59396,188.94081 q -0.0372,-0.0806 -0.0537,-0.23564 -0.10749,0.11368 -0.26872,0.19637 -0.16123,0.0806 -0.36793,0.0806 -0.34314,0 -0.54984,-0.19223 -0.20671,-0.19224 -0.20671,-0.47129 0,-0.35967 0.27285,-0.54571 0.27286,-0.1881 0.73381,-0.1881 h 0.37827 v -0.17776 q 0,-0.19844 -0.11989,-0.31626 -0.11782,-0.11989 -0.3514,-0.11989 -0.21704,0 -0.3514,0.10748 -0.13229,0.10542 -0.13229,0.24598 h -0.3824 q 0,-0.23977 0.24184,-0.45061 0.24185,-0.21084 0.64699,-0.21084 0.3638,0 0.59738,0.18603 0.23358,0.18604 0.23358,0.56224 v 1.0418 q 0,0.11162 0.0186,0.23771 0.0207,0.12609 0.0599,0.21704 v 0.0331 z m -0.63458,-0.29352 q 0.2067,0 0.3576,-0.10335 0.15296,-0.10336 0.21497,-0.22945 v -0.46095 h -0.31626 q -0.68419,0 -0.68419,0.41341 0,0.15916 0.10748,0.27079 0.10749,0.10955 0.3204,0.10955 z"
         id="path130379" />
      <path
         d="m 146.93135,185.76581 v 3.175 h -0.38448 v -3.175 z"
         id="path130381" />
      <path
         d="m 149.31466,188.55014 q -0.10955,0.16536 -0.31006,0.29972 -0.2005,0.13229 -0.53123,0.13229 -0.46715,0 -0.74827,-0.30385 -0.27906,-0.30386 -0.27906,-0.77722 v -0.0868 q 0,-0.36587 0.1385,-0.62219 0.14056,-0.25838 0.3638,-0.39274 0.22324,-0.13642 0.47542,-0.13642 0.47956,0 0.69867,0.31419 0.22117,0.31212 0.22117,0.78135 v 0.17156 h -1.51308 q 0.008,0.30799 0.1819,0.52503 0.1757,0.21498 0.48162,0.21498 0.20257,0 0.34313,-0.0827 0.14056,-0.0827 0.24598,-0.22117 z m -0.8909,-1.57303 q -0.22737,0 -0.38447,0.16536 -0.1571,0.16537 -0.19637,0.47543 h 1.11828 v -0.0289 q -0.0145,-0.22325 -0.13023,-0.41755 -0.11369,-0.1943 -0.40721,-0.1943 z"
         id="path130383" />
    </g>
    <g
       aria-label="Offset"
       id="text62032"
       style="font-size:4.23333px;line-height:1.25;font-family:'Adobe Symbol';-inkscape-font-specification:'Adobe Symbol, Normal';font-variant-ligatures:none;letter-spacing:0px;word-spacing:0px;stroke-width:0.264583"
       transform="translate(0.02209,1.5875)">
      <path
         d="m 140.9884,202.44349 v 0.19017 q 0,0.678 -0.32866,1.06454 -0.32866,0.38654 -0.8785,0.38654 -0.53537,0 -0.87436,-0.38654 -0.339,-0.38654 -0.339,-1.06454 v -0.19017 q 0,-0.67592 0.33693,-1.06246 0.33693,-0.38861 0.8723,-0.38861 0.54983,0 0.88056,0.38861 0.33073,0.38654 0.33073,1.06246 z m -0.39481,0.19017 v -0.1943 q 0,-0.53743 -0.21497,-0.82269 -0.21497,-0.28525 -0.60151,-0.28525 -0.37001,0 -0.59325,0.28525 -0.22117,0.28526 -0.22117,0.82269 v 0.1943 q 0,0.54157 0.22324,0.82889 0.22531,0.28526 0.59531,0.28526 0.38861,0 0.59945,-0.28526 0.2129,-0.28732 0.2129,-0.82889 z"
         id="path130362" />
      <path
         d="m 142.57177,202.10036 h -0.47543 v 1.94304 h -0.3824 v -1.94304 h -0.35347 v -0.29352 h 0.35347 v -0.23564 q 0,-0.36174 0.1943,-0.55397 0.19637,-0.19224 0.5395,-0.19224 0.12609,0 0.26459,0.0331 l -0.0207,0.31213 q -0.0868,-0.0186 -0.2067,-0.0186 -0.38861,0 -0.38861,0.41961 v 0.23564 h 0.47543 z"
         id="path130364" />
      <path
         d="m 144.04351,202.10036 h -0.47542 v 1.94304 h -0.38241 v -1.94304 h -0.35347 v -0.29352 h 0.35347 v -0.23564 q 0,-0.36174 0.1943,-0.55397 0.19637,-0.19224 0.53951,-0.19224 0.12609,0 0.26458,0.0331 l -0.0207,0.31213 q -0.0868,-0.0186 -0.20671,-0.0186 -0.3886,0 -0.3886,0.41961 v 0.23564 h 0.47542 z"
         id="path130366" />
      <path
         d="m 145.77157,203.45015 q 0,-0.12402 -0.093,-0.22117 -0.0909,-0.0992 -0.42168,-0.16537 -0.37414,-0.0786 -0.59118,-0.22324 -0.21497,-0.14469 -0.21497,-0.42168 0,-0.26458 0.22531,-0.45889 0.22737,-0.1943 0.60358,-0.1943 0.40101,0 0.62632,0.20464 0.22531,0.20464 0.22531,0.49403 h -0.38241 q 0,-0.1385 -0.12196,-0.26045 -0.12195,-0.12403 -0.34726,-0.12403 -0.23771,0 -0.34107,0.10336 -0.10335,0.10335 -0.10335,0.22531 0,0.12402 0.0992,0.2005 0.0992,0.0744 0.41548,0.14469 0.41134,0.0951 0.60771,0.24598 0.19637,0.1509 0.19637,0.42168 0,0.29559 -0.23771,0.47956 -0.23564,0.18397 -0.62632,0.18397 -0.44441,0 -0.68006,-0.22738 -0.23564,-0.22738 -0.23564,-0.50436 h 0.38447 q 0.0124,0.23771 0.1819,0.32866 0.17157,0.0889 0.34933,0.0889 0.23358,0 0.3576,-0.091 0.12403,-0.0909 0.12403,-0.22944 z"
         id="path130368" />
      <path
         d="m 148.4236,203.65272 q -0.10955,0.16537 -0.31006,0.29973 -0.2005,0.13229 -0.53123,0.13229 -0.46716,0 -0.74828,-0.30386 -0.27905,-0.30386 -0.27905,-0.77721 v -0.0868 q 0,-0.36587 0.13849,-0.62218 0.14056,-0.25838 0.36381,-0.39274 0.22324,-0.13643 0.47542,-0.13643 0.47956,0 0.69866,0.31419 0.22118,0.31213 0.22118,0.78135 v 0.17157 h -1.51309 q 0.008,0.30799 0.1819,0.52503 0.1757,0.21497 0.48163,0.21497 0.20257,0 0.34313,-0.0827 0.14056,-0.0827 0.24598,-0.22118 z m -0.8909,-1.57303 q -0.22738,0 -0.38447,0.16537 -0.1571,0.16536 -0.19637,0.47542 h 1.11827 v -0.0289 q -0.0145,-0.22324 -0.13022,-0.41754 -0.11369,-0.19431 -0.40721,-0.19431 z"
         id="path130370" />
      <path
         d="m 149.84573,204.0434 q -0.0455,0.0145 -0.11989,0.0269 -0.0723,0.0145 -0.17569,0.0145 -0.21291,0 -0.36381,-0.13023 -0.15089,-0.13022 -0.15089,-0.46715 v -1.387 h -0.40928 v -0.29352 h 0.40928 v -0.54363 h 0.3824 v 0.54363 h 0.41755 v 0.29352 h -0.41755 v 1.38907 q 0,0.17156 0.0744,0.2191 0.0744,0.0476 0.17156,0.0476 0.0476,0 0.0992,-0.008 0.0538,-0.0103 0.0806,-0.0165 z"
         id="path130372" />
    </g>
    <g
       aria-label="Red"
       id="text83250"
       style="font-size:4.23333px;line-height:1.25;font-family:'Adobe Symbol';-inkscape-font-specification:'Adobe Symbol, Normal';font-variant-ligatures:none;letter-spacing:0px;word-spacing:0px;stroke-width:0.264583"
       transform="translate(-0.01144667,-2.1166667)">
      <path
         d="m 142.17535,220.74644 -0.65319,-1.21956 h -0.70693 v 1.21956 h -0.39894 v -3.00963 h 0.99632 q 0.50643,0 0.77928,0.23151 0.27492,0.23151 0.27492,0.6718 0,0.28111 -0.15297,0.49195 -0.15089,0.20878 -0.41961,0.31213 l 0.70694,1.27744 v 0.0248 z m -1.36012,-2.68303 v 1.13894 h 0.60978 q 0.32039,0 0.48163,-0.16329 0.16329,-0.16537 0.16329,-0.39894 0,-0.26045 -0.15709,-0.41755 -0.15503,-0.15916 -0.50023,-0.15916 z"
         id="path130355" />
      <path
         d="m 144.73643,220.35577 q -0.10955,0.16537 -0.31005,0.29972 -0.20051,0.1323 -0.53124,0.1323 -0.46715,0 -0.74827,-0.30386 -0.27905,-0.30386 -0.27905,-0.77721 v -0.0868 q 0,-0.36587 0.13849,-0.62218 0.14056,-0.25839 0.3638,-0.39274 0.22324,-0.13643 0.47542,-0.13643 0.47956,0 0.69867,0.31419 0.22117,0.31213 0.22117,0.78135 v 0.17156 h -1.51308 q 0.008,0.308 0.1819,0.52504 0.1757,0.21497 0.48162,0.21497 0.20257,0 0.34313,-0.0827 0.14056,-0.0827 0.24598,-0.22118 z m -0.8909,-1.57303 q -0.22737,0 -0.38447,0.16537 -0.1571,0.16536 -0.19637,0.47542 h 1.11828 v -0.0289 q -0.0145,-0.22324 -0.13023,-0.41754 -0.11368,-0.19431 -0.40721,-0.19431 z"
         id="path130357" />
      <path
         d="m 146.65466,220.74644 -0.0186,-0.23977 q -0.22945,0.28112 -0.63872,0.28112 -0.39481,0 -0.63872,-0.32246 -0.24185,-0.32247 -0.24185,-0.81236 v -0.0434 q 0,-0.51263 0.24185,-0.82682 0.24391,-0.31419 0.64285,-0.31419 0.39481,0 0.62012,0.26458 v -1.16168 h 0.38447 v 3.17499 z m -1.15342,-1.09347 q 0,0.3328 0.14056,0.57258 0.14056,0.23771 0.45062,0.23771 0.20051,0 0.3266,-0.0909 0.12609,-0.0909 0.20257,-0.23358 v -1.02939 q -0.0744,-0.1385 -0.20257,-0.22738 -0.12609,-0.0909 -0.32246,-0.0909 -0.31213,0 -0.45476,0.24391 -0.14056,0.24185 -0.14056,0.57464 z"
         id="path130359" />
    </g>
    <g
       aria-label="Green"
       id="text89920"
       style="font-size:4.23333px;line-height:1.25;font-family:'Adobe Symbol';-inkscape-font-specification:'Adobe Symbol, Normal';font-variant-ligatures:none;letter-spacing:0px;word-spacing:0px;stroke-width:0.264583"
       transform="translate(-0.90679167,-0.52916667)">
      <path
         d="m 141.64444,231.87469 v 1.10174 q -0.0848,0.12402 -0.32246,0.28112 -0.23771,0.1571 -0.74208,0.1571 -0.54983,0 -0.9033,-0.37621 -0.35347,-0.37827 -0.35347,-1.0542 v -0.23357 q 0,-0.6718 0.3142,-1.05007 0.31419,-0.37827 0.8971,-0.37827 0.51676,0 0.78341,0.26045 0.26872,0.26045 0.3266,0.66146 h -0.39894 q -0.0413,-0.24391 -0.20464,-0.41961 -0.16123,-0.1757 -0.50643,-0.1757 -0.41755,0 -0.61392,0.29559 -0.19637,0.29558 -0.19637,0.80201 v 0.23771 q 0,0.5209 0.23565,0.81442 0.23564,0.29146 0.62218,0.29146 0.32039,0 0.46302,-0.0744 0.14263,-0.0765 0.20257,-0.1447 v -0.67386 h -0.69659 v -0.32246 z"
         id="path130344" />
      <path
         d="m 143.13892,231.46335 q -0.19637,0 -0.32246,0.0889 -0.12609,0.0868 -0.1881,0.23358 v 1.5875 h -0.38241 v -2.23656 h 0.37207 l 0.008,0.25632 q 0.0847,-0.13643 0.21497,-0.21704 0.13229,-0.0806 0.31626,-0.0806 0.10749,0 0.1695,0.0289 l -0.002,0.35553 q -0.0848,-0.0165 -0.18603,-0.0165 z"
         id="path130346" />
      <path
         d="m 145.41061,232.98263 q -0.10955,0.16537 -0.31006,0.29973 -0.2005,0.13229 -0.53123,0.13229 -0.46715,0 -0.74827,-0.30386 -0.27906,-0.30386 -0.27906,-0.77721 v -0.0868 q 0,-0.36587 0.1385,-0.62218 0.14056,-0.25838 0.3638,-0.39274 0.22324,-0.13643 0.47542,-0.13643 0.47956,0 0.69867,0.31419 0.22117,0.31213 0.22117,0.78135 v 0.17157 h -1.51308 q 0.008,0.30799 0.1819,0.52503 0.1757,0.21497 0.48162,0.21497 0.20257,0 0.34313,-0.0827 0.14056,-0.0827 0.24598,-0.22118 z m -0.8909,-1.57303 q -0.22737,0 -0.38447,0.16537 -0.1571,0.16536 -0.19637,0.47542 h 1.11828 v -0.0289 q -0.0145,-0.22324 -0.13023,-0.41754 -0.11369,-0.19431 -0.40721,-0.19431 z"
         id="path130348" />
      <path
         d="m 147.65544,232.98263 q -0.10956,0.16537 -0.31006,0.29973 -0.20051,0.13229 -0.53124,0.13229 -0.46715,0 -0.74827,-0.30386 -0.27905,-0.30386 -0.27905,-0.77721 v -0.0868 q 0,-0.36587 0.13849,-0.62218 0.14056,-0.25838 0.3638,-0.39274 0.22324,-0.13643 0.47542,-0.13643 0.47956,0 0.69867,0.31419 0.22117,0.31213 0.22117,0.78135 v 0.17157 h -1.51308 q 0.008,0.30799 0.1819,0.52503 0.1757,0.21497 0.48162,0.21497 0.20258,0 0.34314,-0.0827 0.14055,-0.0827 0.24597,-0.22118 z m -0.89091,-1.57303 q -0.22737,0 -0.38447,0.16537 -0.15709,0.16536 -0.19637,0.47542 h 1.11828 v -0.0289 q -0.0145,-0.22324 -0.13023,-0.41754 -0.11368,-0.19431 -0.40721,-0.19431 z"
         id="path130350" />
      <path
         d="m 149.05897,231.41787 q -0.18397,0 -0.32453,0.0992 -0.14056,0.0992 -0.22118,0.25838 v 1.59784 h -0.3824 v -2.23656 h 0.36173 l 0.0124,0.27905 q 0.25424,-0.32039 0.66765,-0.32039 0.33073,0 0.52297,0.18604 0.1943,0.18603 0.1943,0.62631 v 1.46555 h -0.38447 v -1.46968 q 0,-0.26252 -0.11576,-0.37414 -0.11368,-0.11162 -0.33072,-0.11162 z"
         id="path130352" />
    </g>
    <g
       aria-label="Blue"
       id="text98966"
       style="font-size:4.23333px;line-height:1.25;font-family:'Adobe Symbol';-inkscape-font-specification:'Adobe Symbol, Normal';font-variant-ligatures:none;letter-spacing:0px;word-spacing:0px;stroke-width:0.264583"
       transform="translate(0.33099833,0.52916667)">
      <path
         d="m 141.54662,246.39717 q 0,0.42168 -0.27285,0.64492 -0.27079,0.22325 -0.72141,0.22325 h -1.05419 v -3.00964 h 0.98598 q 0.46302,0 0.7214,0.19224 0.26045,0.19017 0.26045,0.60978 0,0.20877 -0.11989,0.37207 -0.11782,0.16123 -0.32452,0.25011 0.25424,0.0703 0.3886,0.26665 0.13643,0.19637 0.13643,0.45062 z m -1.64951,-1.81487 v 0.95498 h 0.59944 q 0.25632,0 0.41342,-0.12816 0.15709,-0.12816 0.15709,-0.35553 0,-0.47129 -0.58291,-0.47129 z m 1.25263,1.81901 q 0,-0.25218 -0.13849,-0.39688 -0.13642,-0.14676 -0.44028,-0.14676 h -0.67386 v 1.08314 h 0.65525 q 0.28319,0 0.44029,-0.1447 0.15709,-0.14676 0.15709,-0.3948 z"
         id="path130335" />
      <path
         d="m 142.49333,244.09034 v 3.175 h -0.38447 v -3.175 z"
         id="path130337" />
      <path
         d="m 144.49424,247.26534 -0.008,-0.22118 q -0.10335,0.12402 -0.26458,0.1943 -0.16123,0.0682 -0.38861,0.0682 -0.32866,0 -0.53123,-0.19431 -0.20257,-0.1943 -0.20257,-0.64078 v -1.44281 h 0.3824 v 1.44694 q 0,0.30179 0.12609,0.40514 0.12816,0.10129 0.28526,0.10129 0.23357,0 0.37413,-0.0889 0.14056,-0.0889 0.20878,-0.23565 v -1.62884 h 0.38447 v 2.23656 z"
         id="path130339" />
      <path
         d="m 147.21035,246.87466 q -0.10955,0.16537 -0.31006,0.29972 -0.2005,0.1323 -0.53123,0.1323 -0.46716,0 -0.74827,-0.30386 -0.27906,-0.30386 -0.27906,-0.77721 v -0.0868 q 0,-0.36587 0.1385,-0.62218 0.14056,-0.25839 0.3638,-0.39274 0.22324,-0.13643 0.47542,-0.13643 0.47956,0 0.69866,0.31419 0.22118,0.31213 0.22118,0.78135 v 0.17156 h -1.51308 q 0.008,0.308 0.1819,0.52504 0.1757,0.21497 0.48162,0.21497 0.20257,0 0.34313,-0.0827 0.14056,-0.0827 0.24598,-0.22118 z m -0.8909,-1.57303 q -0.22738,0 -0.38447,0.16537 -0.1571,0.16536 -0.19637,0.47542 h 1.11827 v -0.0289 q -0.0145,-0.22324 -0.13022,-0.41754 -0.11369,-0.19431 -0.40721,-0.19431 z"
         id="path130341" />
    </g>
    <g
       aria-label="Hue"
       id="text103326"
       style="font-size:4.23333px;line-height:1.25;font-family:'Adobe Symbol';-inkscape-font-specification:'Adobe Symbol, Normal';font-variant-ligatures:none;letter-spacing:0px;word-spacing:0px;stroke-width:0.264583"
       transform="translate(0.86549333,1.0583333)">
      <path
         d="m 141.20333,261.06064 v -1.39113 h -1.51722 v 1.39113 h -0.39894 v -3.00963 h 0.39894 v 1.29397 h 1.51722 v -1.29397 h 0.39687 v 3.00963 z"
         id="path130328" />
      <path
         d="m 143.63625,261.06064 -0.008,-0.22118 q -0.10335,0.12403 -0.26458,0.19431 -0.16123,0.0682 -0.3886,0.0682 -0.32867,0 -0.53124,-0.1943 -0.20257,-0.19431 -0.20257,-0.64079 v -1.44281 h 0.38241 v 1.44694 q 0,0.30179 0.12609,0.40515 0.12815,0.10128 0.28525,0.10128 0.23358,0 0.37414,-0.0889 0.14056,-0.0889 0.20877,-0.23565 v -1.62884 h 0.38447 v 2.23656 z"
         id="path130330" />
      <path
         d="m 146.35236,260.66996 q -0.10955,0.16537 -0.31005,0.29973 -0.20051,0.13229 -0.53124,0.13229 -0.46715,0 -0.74827,-0.30386 -0.27905,-0.30385 -0.27905,-0.77721 v -0.0868 q 0,-0.36587 0.13849,-0.62218 0.14056,-0.25838 0.3638,-0.39274 0.22324,-0.13643 0.47542,-0.13643 0.47956,0 0.69867,0.3142 0.22117,0.31212 0.22117,0.78134 v 0.17157 h -1.51308 q 0.008,0.30799 0.1819,0.52503 0.1757,0.21497 0.48162,0.21497 0.20257,0 0.34313,-0.0827 0.14056,-0.0827 0.24598,-0.22117 z m -0.8909,-1.57302 q -0.22737,0 -0.38447,0.16536 -0.1571,0.16536 -0.19637,0.47542 h 1.11828 v -0.0289 q -0.0145,-0.22324 -0.13023,-0.41754 -0.11369,-0.1943 -0.40721,-0.1943 z"
         id="path130332" />
    </g>
    <g
       aria-label="Sat"
       id="text115342"
       style="font-size:4.23333px;line-height:1.25;font-family:'Adobe Symbol';-inkscape-font-specification:'Adobe Symbol, Normal';font-variant-ligatures:none;letter-spacing:0px;word-spacing:0px;stroke-width:0.264583"
       transform="translate(0.85893333,0.52916667)">
      <path
         d="m 141.68324,275.32813 q 0,-0.21084 -0.14469,-0.33486 -0.1447,-0.12403 -0.57051,-0.24805 -0.44648,-0.13022 -0.71107,-0.3328 -0.26458,-0.20463 -0.26458,-0.55603 0,-0.3514 0.27905,-0.58498 0.28112,-0.23358 0.74414,-0.23358 0.5085,0 0.78342,0.27905 0.27698,0.27906 0.27698,0.63046 h -0.39687 q 0,-0.25218 -0.1633,-0.41755 -0.1633,-0.16536 -0.50023,-0.16536 -0.31832,0 -0.47129,0.14056 -0.15296,0.13849 -0.15296,0.34726 0,0.19017 0.16537,0.31626 0.16743,0.12609 0.5395,0.22944 0.51056,0.1447 0.74827,0.35967 0.23978,0.21498 0.23978,0.56638 0,0.36793 -0.28732,0.58704 -0.28732,0.21911 -0.76274,0.21911 -0.27906,0 -0.53951,-0.10336 -0.26044,-0.10335 -0.42994,-0.30592 -0.16743,-0.20464 -0.16743,-0.50436 h 0.39687 q 0,0.30799 0.22531,0.44855 0.22531,0.14056 0.5147,0.14056 0.31212,0 0.47955,-0.12816 0.1695,-0.13022 0.1695,-0.34933 z"
         id="path130321" />
      <path
         d="m 143.91566,276.08881 q -0.0372,-0.0806 -0.0537,-0.23565 -0.10749,0.11369 -0.26872,0.19637 -0.16123,0.0806 -0.36794,0.0806 -0.34313,0 -0.54983,-0.19224 -0.20671,-0.19224 -0.20671,-0.47129 0,-0.35967 0.27285,-0.5457 0.27285,-0.1881 0.73381,-0.1881 h 0.37827 v -0.17777 q 0,-0.19844 -0.11989,-0.31626 -0.11782,-0.11989 -0.3514,-0.11989 -0.21704,0 -0.3514,0.10749 -0.13229,0.10542 -0.13229,0.24598 h -0.38241 q 0,-0.23978 0.24185,-0.45062 0.24185,-0.21084 0.64699,-0.21084 0.3638,0 0.59738,0.18604 0.23357,0.18603 0.23357,0.56224 v 1.04179 q 0,0.11162 0.0186,0.23771 0.0207,0.12609 0.0599,0.21704 v 0.0331 z m -0.63458,-0.29353 q 0.2067,0 0.3576,-0.10335 0.15296,-0.10335 0.21497,-0.22944 v -0.46096 h -0.31626 q -0.6842,0 -0.6842,0.41342 0,0.15916 0.10749,0.27078 0.10749,0.10955 0.3204,0.10955 z"
         id="path130323" />
      <path
         d="m 145.78428,276.08881 q -0.0455,0.0145 -0.11989,0.0269 -0.0724,0.0145 -0.1757,0.0145 -0.21291,0 -0.3638,-0.13023 -0.1509,-0.13022 -0.1509,-0.46715 v -1.387 h -0.40927 v -0.29352 h 0.40927 v -0.54363 h 0.38241 v 0.54363 h 0.41754 v 0.29352 h -0.41754 v 1.38907 q 0,0.17156 0.0744,0.2191 0.0744,0.0476 0.17157,0.0476 0.0475,0 0.0992,-0.008 0.0537,-0.0103 0.0806,-0.0165 z"
         id="path130325" />
    </g>
    <g
       aria-label="Reset"
       id="text132922"
       style="font-size:4.23333px;line-height:1.25;font-family:'Adobe Symbol';-inkscape-font-specification:'Adobe Symbol, Normal';font-variant-ligatures:none;letter-spacing:0px;word-spacing:0px;stroke-width:0.264583">
      <path
         d="m 5.668266,218.65765 -0.6531896,-1.21956 h -0.706933 v 1.21956 H 3.9092017 v -3.00963 h 0.9963208 q 0.5064286,0 0.7792799,0.23151 0.2749184,0.23151 0.2749184,0.67179 0,0.28112 -0.1529621,0.49196 -0.1508951,0.20878 -0.4196123,0.31213 l 0.706933,1.27744 v 0.0248 z m -1.3601226,-2.68303 v 1.13894 h 0.6097814 q 0.3203936,0 0.4816239,-0.16329 0.1632974,-0.16537 0.1632974,-0.39895 0,-0.26044 -0.1570962,-0.41754 -0.1550292,-0.15916 -0.5002274,-0.15916 z"
         id="path2155" />
      <path
         d="m 8.2293479,218.26698 q -0.1095539,0.16536 -0.3100583,0.29972 -0.2005044,0.13229 -0.5312333,0.13229 -0.4671546,0 -0.7482741,-0.30385 -0.2790525,-0.30386 -0.2790525,-0.77722 v -0.0868 q 0,-0.36587 0.1384927,-0.62219 0.1405598,-0.25838 0.3638018,-0.39274 0.223242,-0.13642 0.4754228,-0.13642 0.4795568,0 0.6986647,0.31419 0.221175,0.31213 0.221175,0.78135 v 0.17156 H 6.745202 q 0.00827,0.30799 0.1819009,0.52504 0.1756997,0.21497 0.4816239,0.21497 0.2025715,0 0.3431313,-0.0827 0.1405597,-0.0827 0.2459796,-0.22118 z M 7.338447,216.69395 q -0.2273762,0 -0.3844724,0.16537 -0.1570962,0.16536 -0.1963703,0.47542 h 1.1182771 v -0.0289 q -0.014469,-0.22324 -0.1302245,-0.41755 -0.1136881,-0.1943 -0.4072099,-0.1943 z"
         id="path2157" />
      <path
         d="m 10.007016,218.06441 q 0,-0.12402 -0.093018,-0.22118 -0.09095,-0.0992 -0.4216793,-0.16536 -0.3741371,-0.0786 -0.5911779,-0.22324 -0.2149738,-0.1447 -0.2149738,-0.42168 0,-0.26458 0.2253091,-0.45889 0.2273761,-0.1943 0.6035802,-0.1943 0.4010088,0 0.6263177,0.20464 0.225309,0.20464 0.225309,0.49402 H 9.984278 q 0,-0.13849 -0.1219563,-0.26045 -0.1219563,-0.12402 -0.3472653,-0.12402 -0.2377114,0 -0.3410642,0.10335 -0.1033528,0.10336 -0.1033528,0.22531 0,0.12403 0.099219,0.20051 0.099219,0.0744 0.4154782,0.14469 0.411344,0.0951 0.6077144,0.24598 0.19637,0.1509 0.19637,0.42168 0,0.29559 -0.237712,0.47956 -0.2356435,0.18396 -0.626317,0.18396 -0.444417,0 -0.6800613,-0.22737 -0.2356443,-0.22738 -0.2356443,-0.50436 h 0.3844723 q 0.012402,0.23771 0.1819009,0.32866 0.1715656,0.0889 0.3493324,0.0889 0.2335772,0 0.3576006,-0.091 0.1240234,-0.0909 0.1240234,-0.22944 z"
         id="path2159" />
      <path
         d="m 12.659048,218.26698 q -0.109554,0.16536 -0.310058,0.29972 -0.200505,0.13229 -0.531234,0.13229 -0.467154,0 -0.748274,-0.30385 -0.279052,-0.30386 -0.279052,-0.77722 v -0.0868 q 0,-0.36587 0.138493,-0.62219 0.140559,-0.25838 0.363801,-0.39274 0.223242,-0.13642 0.475423,-0.13642 0.479557,0 0.698665,0.31419 0.221175,0.31213 0.221175,0.78135 v 0.17156 h -1.513085 q 0.0083,0.30799 0.181901,0.52504 0.1757,0.21497 0.481624,0.21497 0.202571,0 0.343131,-0.0827 0.14056,-0.0827 0.24598,-0.22118 z m -0.890901,-1.57303 q -0.227376,0 -0.384472,0.16537 -0.157096,0.16536 -0.196371,0.47542 h 1.118278 v -0.0289 q -0.01447,-0.22324 -0.130225,-0.41755 -0.113688,-0.1943 -0.40721,-0.1943 z"
         id="path2161" />
      <path
         d="m 14.081181,218.65765 q -0.04548,0.0145 -0.119889,0.0269 -0.07235,0.0145 -0.175699,0.0145 -0.212907,0 -0.363802,-0.13022 -0.150895,-0.13022 -0.150895,-0.46715 v -1.387 h -0.409277 v -0.29352 h 0.409277 v -0.54364 h 0.382405 v 0.54364 h 0.417545 v 0.29352 h -0.417545 v 1.38906 q 0,0.17157 0.07441,0.21911 0.07441,0.0475 0.171566,0.0475 0.04754,0 0.09922,-0.008 0.05374,-0.0103 0.08061,-0.0165 z"
         id="path2163" />
    </g>
  </g>
  <g
     inkscape:groupmode="layer"
     id="layer2"
     inkscape:label="components"
     style="display:none;opacity:1">
    <circle
       style="display:inline;opacity:1;vector-effect:none;fill:#0000ff;fill-opacity:1;fill-rule:evenodd;stroke:none;stroke-width:1;stroke-linecap:butt;stroke-linejoin:miter;stroke-miterlimit:4;stroke-dasharray:none;stroke-dashoffset:0;stroke-opacity:1;paint-order:normal"
       id="circle4958"
       cx="143.8401"
       cy="114.91595"
       inkscape:label="Lum"
       r="4" />
    <circle
       style="display:inline;vector-effect:none;fill:#0000ff;fill-opacity:1;fill-rule:evenodd;stroke:none;stroke-width:1;stroke-linecap:butt;stroke-linejoin:miter;stroke-miterlimit:4;stroke-dasharray:none;stroke-dashoffset:0;stroke-opacity:1;paint-order:normal"
       id="circle4958-1"
       cx="143.8401"
       cy="100.43996"
       inkscape:label="Sat"
       r="4" />
    <circle
       style="display:inline;vector-effect:none;fill:#0000ff;fill-opacity:1;fill-rule:evenodd;stroke:none;stroke-width:1;stroke-linecap:butt;stroke-linejoin:miter;stroke-miterlimit:4;stroke-dasharray:none;stroke-dashoffset:0;stroke-opacity:1;paint-order:normal"
       id="circle4958-5"
       cx="143.8401"
       cy="85.963989"
       inkscape:label="Hue"
       r="4"
       inkscape:transform-center-y="3.9121254" />
    <circle
       style="display:inline;vector-effect:none;fill:#0000ff;fill-opacity:1;fill-rule:evenodd;stroke:none;stroke-width:1;stroke-linecap:butt;stroke-linejoin:miter;stroke-miterlimit:4;stroke-dasharray:none;stroke-dashoffset:0;stroke-opacity:1;paint-order:normal"
       id="circle4958-9"
       cx="143.8401"
       cy="71.488007"
       inkscape:label="Blue"
       r="4" />
    <circle
       style="display:inline;vector-effect:none;fill:#0000ff;fill-opacity:1;fill-rule:evenodd;stroke:none;stroke-width:1;stroke-linecap:butt;stroke-linejoin:miter;stroke-miterlimit:4;stroke-dasharray:none;stroke-dashoffset:0;stroke-opacity:1;paint-order:normal"
       id="circle4958-7"
       cx="143.8401"
       cy="57.012001"
       inkscape:label="Green"
       r="4" />
    <circle
       style="display:inline;vector-effect:none;fill:#0000ff;fill-opacity:1;fill-rule:evenodd;stroke:none;stroke-width:1;stroke-linecap:butt;stroke-linejoin:miter;stroke-miterlimit:4;stroke-dasharray:none;stroke-dashoffset:0;stroke-opacity:1;paint-order:normal"
       id="circle4958-53"
       cx="143.8401"
       cy="42.53603"
       inkscape:label="Red"
       r="4" />
    <circle
       style="display:inline;vector-effect:none;fill:#ff0000;fill-opacity:1;fill-rule:evenodd;stroke:none;stroke-width:1;stroke-linecap:butt;stroke-linejoin:miter;stroke-miterlimit:4;stroke-dasharray:none;stroke-dashoffset:0;stroke-opacity:1;paint-order:normal"
       id="path4954-8"
       cx="143.8401"
       cy="28.06004"
       inkscape:label="Offset"
       r="4" />
    <circle
       style="display:inline;opacity:1;vector-effect:none;fill:#ff0000;fill-opacity:1;fill-rule:evenodd;stroke:none;stroke-width:1;stroke-linecap:butt;stroke-linejoin:miter;stroke-miterlimit:4;stroke-dasharray:none;stroke-dashoffset:0;stroke-opacity:1;paint-order:normal"
       id="path4954"
       cx="143.8401"
       cy="13.58405"
       inkscape:label="Scale"
       r="4" />
    <circle
       inkscape:label="clock"
       cy="57.012001"
       cx="9"
       id="circle66"
       style="display:inline;opacity:1;vector-effect:none;fill:#00ff00;fill-opacity:1;fill-rule:evenodd;stroke:none;stroke-width:1;stroke-linecap:butt;stroke-linejoin:miter;stroke-miterlimit:4;stroke-dasharray:none;stroke-dashoffset:0;stroke-opacity:1;paint-order:normal"
       r="4" />
    <circle
       inkscape:label="reset"
       cy="42.535999"
       cx="9"
       id="circle66-3"
       style="display:inline;vector-effect:none;fill:#00ff00;fill-opacity:1;fill-rule:evenodd;stroke:none;stroke-width:1;stroke-linecap:butt;stroke-linejoin:miter;stroke-miterlimit:4;stroke-dasharray:none;stroke-dashoffset:0;stroke-opacity:1;paint-order:normal"
       r="4" />
  </g>
  <script
     id="mesh_polyfill"
     type="text/javascript">
!function(){const t=&quot;http://www.w3.org/2000/svg&quot;,e=&quot;http://www.w3.org/1999/xlink&quot;,s=&quot;http://www.w3.org/1999/xhtml&quot;,r=2;if(document.createElementNS(t,&quot;meshgradient&quot;).x)return;const n=(t,e,s,r)=&gt;{let n=new x(.5*(e.x+s.x),.5*(e.y+s.y)),o=new x(.5*(t.x+e.x),.5*(t.y+e.y)),i=new x(.5*(s.x+r.x),.5*(s.y+r.y)),a=new x(.5*(n.x+o.x),.5*(n.y+o.y)),h=new x(.5*(n.x+i.x),.5*(n.y+i.y)),l=new x(.5*(a.x+h.x),.5*(a.y+h.y));return[[t,o,a,l],[l,h,i,r]]},o=t=&gt;{let e=t[0].distSquared(t[1]),s=t[2].distSquared(t[3]),r=.25*t[0].distSquared(t[2]),n=.25*t[1].distSquared(t[3]),o=e&gt;s?e:s,i=r&gt;n?r:n;return 18*(o&gt;i?o:i)},i=(t,e)=&gt;Math.sqrt(t.distSquared(e)),a=(t,e)=&gt;t.scale(2/3).add(e.scale(1/3)),h=t=&gt;{let e,s,r,n,o,i,a,h=new g;return t.match(/(\w+\(\s*[^)]+\))+/g).forEach(t=&gt;{let l=t.match(/[\w.-]+/g),d=l.shift();switch(d){case&quot;translate&quot;:2===l.length?e=new g(1,0,0,1,l[0],l[1]):(console.error(&quot;mesh.js: translate does not have 2 arguments!&quot;),e=new g(1,0,0,1,0,0)),h=h.append(e);break;case&quot;scale&quot;:1===l.length?s=new g(l[0],0,0,l[0],0,0):2===l.length?s=new g(l[0],0,0,l[1],0,0):(console.error(&quot;mesh.js: scale does not have 1 or 2 arguments!&quot;),s=new g(1,0,0,1,0,0)),h=h.append(s);break;case&quot;rotate&quot;:if(3===l.length&amp;&amp;(e=new g(1,0,0,1,l[1],l[2]),h=h.append(e)),l[0]){r=l[0]*Math.PI/180;let t=Math.cos(r),e=Math.sin(r);Math.abs(t)&lt;1e-16&amp;&amp;(t=0),Math.abs(e)&lt;1e-16&amp;&amp;(e=0),a=new g(t,e,-e,t,0,0),h=h.append(a)}else console.error(&quot;math.js: No argument to rotate transform!&quot;);3===l.length&amp;&amp;(e=new g(1,0,0,1,-l[1],-l[2]),h=h.append(e));break;case&quot;skewX&quot;:l[0]?(r=l[0]*Math.PI/180,n=Math.tan(r),o=new g(1,0,n,1,0,0),h=h.append(o)):console.error(&quot;math.js: No argument to skewX transform!&quot;);break;case&quot;skewY&quot;:l[0]?(r=l[0]*Math.PI/180,n=Math.tan(r),i=new g(1,n,0,1,0,0),h=h.append(i)):console.error(&quot;math.js: No argument to skewY transform!&quot;);break;case&quot;matrix&quot;:6===l.length?h=h.append(new g(...l)):console.error(&quot;math.js: Incorrect number of arguments for matrix!&quot;);break;default:console.error(&quot;mesh.js: Unhandled transform type: &quot;+d)}}),h},l=t=&gt;{let e=[],s=t.split(/[ ,]+/);for(let t=0,r=s.length-1;t&lt;r;t+=2)e.push(new x(parseFloat(s[t]),parseFloat(s[t+1])));return e},d=(t,e)=&gt;{for(let s in e)t.setAttribute(s,e[s])},c=(t,e,s,r,n)=&gt;{let o,i,a=[0,0,0,0];for(let h=0;h&lt;3;++h)e[h]&lt;t[h]&amp;&amp;e[h]&lt;s[h]||t[h]&lt;e[h]&amp;&amp;s[h]&lt;e[h]?a[h]=0:(a[h]=.5*((e[h]-t[h])/r+(s[h]-e[h])/n),o=Math.abs(3*(e[h]-t[h])/r),i=Math.abs(3*(s[h]-e[h])/n),a[h]&gt;o?a[h]=o:a[h]&gt;i&amp;&amp;(a[h]=i));return a},u=[[1,0,0,0,0,0,0,0,0,0,0,0,0,0,0,0],[0,0,0,0,1,0,0,0,0,0,0,0,0,0,0,0],[-3,3,0,0,-2,-1,0,0,0,0,0,0,0,0,0,0],[2,-2,0,0,1,1,0,0,0,0,0,0,0,0,0,0],[0,0,0,0,0,0,0,0,1,0,0,0,0,0,0,0],[0,0,0,0,0,0,0,0,0,0,0,0,1,0,0,0],[0,0,0,0,0,0,0,0,-3,3,0,0,-2,-1,0,0],[0,0,0,0,0,0,0,0,2,-2,0,0,1,1,0,0],[-3,0,3,0,0,0,0,0,-2,0,-1,0,0,0,0,0],[0,0,0,0,-3,0,3,0,0,0,0,0,-2,0,-1,0],[9,-9,-9,9,6,3,-6,-3,6,-6,3,-3,4,2,2,1],[-6,6,6,-6,-3,-3,3,3,-4,4,-2,2,-2,-2,-1,-1],[2,0,-2,0,0,0,0,0,1,0,1,0,0,0,0,0],[0,0,0,0,2,0,-2,0,0,0,0,0,1,0,1,0],[-6,6,6,-6,-4,-2,4,2,-3,3,-3,3,-2,-1,-2,-1],[4,-4,-4,4,2,2,-2,-2,2,-2,2,-2,1,1,1,1]],f=t=&gt;{let e=[];for(let s=0;s&lt;16;++s){e[s]=0;for(let r=0;r&lt;16;++r)e[s]+=u[s][r]*t[r]}return e},p=(t,e,s)=&gt;{const r=e*e,n=s*s,o=e*e*e,i=s*s*s;return t[0]+t[1]*e+t[2]*r+t[3]*o+t[4]*s+t[5]*s*e+t[6]*s*r+t[7]*s*o+t[8]*n+t[9]*n*e+t[10]*n*r+t[11]*n*o+t[12]*i+t[13]*i*e+t[14]*i*r+t[15]*i*o},y=t=&gt;{let e=[],s=[],r=[];for(let s=0;s&lt;4;++s)e[s]=[],e[s][0]=n(t[0][s],t[1][s],t[2][s],t[3][s]),e[s][1]=[],e[s][1].push(...n(...e[s][0][0])),e[s][1].push(...n(...e[s][0][1])),e[s][2]=[],e[s][2].push(...n(...e[s][1][0])),e[s][2].push(...n(...e[s][1][1])),e[s][2].push(...n(...e[s][1][2])),e[s][2].push(...n(...e[s][1][3]));for(let t=0;t&lt;8;++t){s[t]=[];for(let r=0;r&lt;4;++r)s[t][r]=[],s[t][r][0]=n(e[0][2][t][r],e[1][2][t][r],e[2][2][t][r],e[3][2][t][r]),s[t][r][1]=[],s[t][r][1].push(...n(...s[t][r][0][0])),s[t][r][1].push(...n(...s[t][r][0][1])),s[t][r][2]=[],s[t][r][2].push(...n(...s[t][r][1][0])),s[t][r][2].push(...n(...s[t][r][1][1])),s[t][r][2].push(...n(...s[t][r][1][2])),s[t][r][2].push(...n(...s[t][r][1][3]))}for(let t=0;t&lt;8;++t){r[t]=[];for(let e=0;e&lt;8;++e)r[t][e]=[],r[t][e][0]=s[t][0][2][e],r[t][e][1]=s[t][1][2][e],r[t][e][2]=s[t][2][2][e],r[t][e][3]=s[t][3][2][e]}return r};class x{constructor(t,e){this.x=t||0,this.y=e||0}toString(){return`(x=${this.x}, y=${this.y})`}clone(){return new x(this.x,this.y)}add(t){return new x(this.x+t.x,this.y+t.y)}scale(t){return void 0===t.x?new x(this.x*t,this.y*t):new x(this.x*t.x,this.y*t.y)}distSquared(t){let e=this.x-t.x,s=this.y-t.y;return e*e+s*s}transform(t){let e=this.x*t.a+this.y*t.c+t.e,s=this.x*t.b+this.y*t.d+t.f;return new x(e,s)}}class g{constructor(t,e,s,r,n,o){void 0===t?(this.a=1,this.b=0,this.c=0,this.d=1,this.e=0,this.f=0):(this.a=t,this.b=e,this.c=s,this.d=r,this.e=n,this.f=o)}toString(){return`affine: ${this.a} ${this.c} ${this.e} \n       ${this.b} ${this.d} ${this.f}`}append(t){t instanceof g||console.error(&quot;mesh.js: argument to Affine.append is not affine!&quot;);let e=this.a*t.a+this.c*t.b,s=this.b*t.a+this.d*t.b,r=this.a*t.c+this.c*t.d,n=this.b*t.c+this.d*t.d,o=this.a*t.e+this.c*t.f+this.e,i=this.b*t.e+this.d*t.f+this.f;return new g(e,s,r,n,o,i)}}class w{constructor(t,e){this.nodes=t,this.colors=e}paintCurve(t,e){if(o(this.nodes)&gt;r){const s=n(...this.nodes);let r=[[],[]],o=[[],[]];for(let t=0;t&lt;4;++t)r[0][t]=this.colors[0][t],r[1][t]=(this.colors[0][t]+this.colors[1][t])/2,o[0][t]=r[1][t],o[1][t]=this.colors[1][t];let i=new w(s[0],r),a=new w(s[1],o);i.paintCurve(t,e),a.paintCurve(t,e)}else{let s=Math.round(this.nodes[0].x);if(s&gt;=0&amp;&amp;s&lt;e){let r=4*(~~this.nodes[0].y*e+s);t[r]=Math.round(this.colors[0][0]),t[r+1]=Math.round(this.colors[0][1]),t[r+2]=Math.round(this.colors[0][2]),t[r+3]=Math.round(this.colors[0][3])}}}}class m{constructor(t,e){this.nodes=t,this.colors=e}split(){let t=[[],[],[],[]],e=[[],[],[],[]],s=[[[],[]],[[],[]]],r=[[[],[]],[[],[]]];for(let s=0;s&lt;4;++s){const r=n(this.nodes[0][s],this.nodes[1][s],this.nodes[2][s],this.nodes[3][s]);t[0][s]=r[0][0],t[1][s]=r[0][1],t[2][s]=r[0][2],t[3][s]=r[0][3],e[0][s]=r[1][0],e[1][s]=r[1][1],e[2][s]=r[1][2],e[3][s]=r[1][3]}for(let t=0;t&lt;4;++t)s[0][0][t]=this.colors[0][0][t],s[0][1][t]=this.colors[0][1][t],s[1][0][t]=(this.colors[0][0][t]+this.colors[1][0][t])/2,s[1][1][t]=(this.colors[0][1][t]+this.colors[1][1][t])/2,r[0][0][t]=s[1][0][t],r[0][1][t]=s[1][1][t],r[1][0][t]=this.colors[1][0][t],r[1][1][t]=this.colors[1][1][t];return[new m(t,s),new m(e,r)]}paint(t,e){let s,n=!1;for(let t=0;t&lt;4;++t)if((s=o([this.nodes[0][t],this.nodes[1][t],this.nodes[2][t],this.nodes[3][t]]))&gt;r){n=!0;break}if(n){let s=this.split();s[0].paint(t,e),s[1].paint(t,e)}else{new w([...this.nodes[0]],[...this.colors[0]]).paintCurve(t,e)}}}class b{constructor(t){this.readMesh(t),this.type=t.getAttribute(&quot;type&quot;)||&quot;bilinear&quot;}readMesh(t){let e=[[]],s=[[]],r=Number(t.getAttribute(&quot;x&quot;)),n=Number(t.getAttribute(&quot;y&quot;));e[0][0]=new x(r,n);let o=t.children;for(let t=0,r=o.length;t&lt;r;++t){e[3*t+1]=[],e[3*t+2]=[],e[3*t+3]=[],s[t+1]=[];let r=o[t].children;for(let n=0,o=r.length;n&lt;o;++n){let o=r[n].children;for(let r=0,i=o.length;r&lt;i;++r){let i=r;0!==t&amp;&amp;++i;let h,d=o[r].getAttribute(&quot;path&quot;),c=&quot;l&quot;;null!=d&amp;&amp;(c=(h=d.match(/\s*([lLcC])\s*(.*)/))[1]);let u=l(h[2]);switch(c){case&quot;l&quot;:0===i?(e[3*t][3*n+3]=u[0].add(e[3*t][3*n]),e[3*t][3*n+1]=a(e[3*t][3*n],e[3*t][3*n+3]),e[3*t][3*n+2]=a(e[3*t][3*n+3],e[3*t][3*n])):1===i?(e[3*t+3][3*n+3]=u[0].add(e[3*t][3*n+3]),e[3*t+1][3*n+3]=a(e[3*t][3*n+3],e[3*t+3][3*n+3]),e[3*t+2][3*n+3]=a(e[3*t+3][3*n+3],e[3*t][3*n+3])):2===i?(0===n&amp;&amp;(e[3*t+3][3*n+0]=u[0].add(e[3*t+3][3*n+3])),e[3*t+3][3*n+1]=a(e[3*t+3][3*n],e[3*t+3][3*n+3]),e[3*t+3][3*n+2]=a(e[3*t+3][3*n+3],e[3*t+3][3*n])):(e[3*t+1][3*n]=a(e[3*t][3*n],e[3*t+3][3*n]),e[3*t+2][3*n]=a(e[3*t+3][3*n],e[3*t][3*n]));break;case&quot;L&quot;:0===i?(e[3*t][3*n+3]=u[0],e[3*t][3*n+1]=a(e[3*t][3*n],e[3*t][3*n+3]),e[3*t][3*n+2]=a(e[3*t][3*n+3],e[3*t][3*n])):1===i?(e[3*t+3][3*n+3]=u[0],e[3*t+1][3*n+3]=a(e[3*t][3*n+3],e[3*t+3][3*n+3]),e[3*t+2][3*n+3]=a(e[3*t+3][3*n+3],e[3*t][3*n+3])):2===i?(0===n&amp;&amp;(e[3*t+3][3*n+0]=u[0]),e[3*t+3][3*n+1]=a(e[3*t+3][3*n],e[3*t+3][3*n+3]),e[3*t+3][3*n+2]=a(e[3*t+3][3*n+3],e[3*t+3][3*n])):(e[3*t+1][3*n]=a(e[3*t][3*n],e[3*t+3][3*n]),e[3*t+2][3*n]=a(e[3*t+3][3*n],e[3*t][3*n]));break;case&quot;c&quot;:0===i?(e[3*t][3*n+1]=u[0].add(e[3*t][3*n]),e[3*t][3*n+2]=u[1].add(e[3*t][3*n]),e[3*t][3*n+3]=u[2].add(e[3*t][3*n])):1===i?(e[3*t+1][3*n+3]=u[0].add(e[3*t][3*n+3]),e[3*t+2][3*n+3]=u[1].add(e[3*t][3*n+3]),e[3*t+3][3*n+3]=u[2].add(e[3*t][3*n+3])):2===i?(e[3*t+3][3*n+2]=u[0].add(e[3*t+3][3*n+3]),e[3*t+3][3*n+1]=u[1].add(e[3*t+3][3*n+3]),0===n&amp;&amp;(e[3*t+3][3*n+0]=u[2].add(e[3*t+3][3*n+3]))):(e[3*t+2][3*n]=u[0].add(e[3*t+3][3*n]),e[3*t+1][3*n]=u[1].add(e[3*t+3][3*n]));break;case&quot;C&quot;:0===i?(e[3*t][3*n+1]=u[0],e[3*t][3*n+2]=u[1],e[3*t][3*n+3]=u[2]):1===i?(e[3*t+1][3*n+3]=u[0],e[3*t+2][3*n+3]=u[1],e[3*t+3][3*n+3]=u[2]):2===i?(e[3*t+3][3*n+2]=u[0],e[3*t+3][3*n+1]=u[1],0===n&amp;&amp;(e[3*t+3][3*n+0]=u[2])):(e[3*t+2][3*n]=u[0],e[3*t+1][3*n]=u[1]);break;default:console.error(&quot;mesh.js: &quot;+c+&quot; invalid path type.&quot;)}if(0===t&amp;&amp;0===n||r&gt;0){let e=window.getComputedStyle(o[r]).stopColor.match(/^rgb\s*\(\s*(\d+)\s*,\s*(\d+)\s*,\s*(\d+)\s*\)$/i),a=window.getComputedStyle(o[r]).stopOpacity,h=255;a&amp;&amp;(h=Math.floor(255*a)),e&amp;&amp;(0===i?(s[t][n]=[],s[t][n][0]=Math.floor(e[1]),s[t][n][1]=Math.floor(e[2]),s[t][n][2]=Math.floor(e[3]),s[t][n][3]=h):1===i?(s[t][n+1]=[],s[t][n+1][0]=Math.floor(e[1]),s[t][n+1][1]=Math.floor(e[2]),s[t][n+1][2]=Math.floor(e[3]),s[t][n+1][3]=h):2===i?(s[t+1][n+1]=[],s[t+1][n+1][0]=Math.floor(e[1]),s[t+1][n+1][1]=Math.floor(e[2]),s[t+1][n+1][2]=Math.floor(e[3]),s[t+1][n+1][3]=h):3===i&amp;&amp;(s[t+1][n]=[],s[t+1][n][0]=Math.floor(e[1]),s[t+1][n][1]=Math.floor(e[2]),s[t+1][n][2]=Math.floor(e[3]),s[t+1][n][3]=h))}}e[3*t+1][3*n+1]=new x,e[3*t+1][3*n+2]=new x,e[3*t+2][3*n+1]=new x,e[3*t+2][3*n+2]=new x,e[3*t+1][3*n+1].x=(-4*e[3*t][3*n].x+6*(e[3*t][3*n+1].x+e[3*t+1][3*n].x)+-2*(e[3*t][3*n+3].x+e[3*t+3][3*n].x)+3*(e[3*t+3][3*n+1].x+e[3*t+1][3*n+3].x)+-1*e[3*t+3][3*n+3].x)/9,e[3*t+1][3*n+2].x=(-4*e[3*t][3*n+3].x+6*(e[3*t][3*n+2].x+e[3*t+1][3*n+3].x)+-2*(e[3*t][3*n].x+e[3*t+3][3*n+3].x)+3*(e[3*t+3][3*n+2].x+e[3*t+1][3*n].x)+-1*e[3*t+3][3*n].x)/9,e[3*t+2][3*n+1].x=(-4*e[3*t+3][3*n].x+6*(e[3*t+3][3*n+1].x+e[3*t+2][3*n].x)+-2*(e[3*t+3][3*n+3].x+e[3*t][3*n].x)+3*(e[3*t][3*n+1].x+e[3*t+2][3*n+3].x)+-1*e[3*t][3*n+3].x)/9,e[3*t+2][3*n+2].x=(-4*e[3*t+3][3*n+3].x+6*(e[3*t+3][3*n+2].x+e[3*t+2][3*n+3].x)+-2*(e[3*t+3][3*n].x+e[3*t][3*n+3].x)+3*(e[3*t][3*n+2].x+e[3*t+2][3*n].x)+-1*e[3*t][3*n].x)/9,e[3*t+1][3*n+1].y=(-4*e[3*t][3*n].y+6*(e[3*t][3*n+1].y+e[3*t+1][3*n].y)+-2*(e[3*t][3*n+3].y+e[3*t+3][3*n].y)+3*(e[3*t+3][3*n+1].y+e[3*t+1][3*n+3].y)+-1*e[3*t+3][3*n+3].y)/9,e[3*t+1][3*n+2].y=(-4*e[3*t][3*n+3].y+6*(e[3*t][3*n+2].y+e[3*t+1][3*n+3].y)+-2*(e[3*t][3*n].y+e[3*t+3][3*n+3].y)+3*(e[3*t+3][3*n+2].y+e[3*t+1][3*n].y)+-1*e[3*t+3][3*n].y)/9,e[3*t+2][3*n+1].y=(-4*e[3*t+3][3*n].y+6*(e[3*t+3][3*n+1].y+e[3*t+2][3*n].y)+-2*(e[3*t+3][3*n+3].y+e[3*t][3*n].y)+3*(e[3*t][3*n+1].y+e[3*t+2][3*n+3].y)+-1*e[3*t][3*n+3].y)/9,e[3*t+2][3*n+2].y=(-4*e[3*t+3][3*n+3].y+6*(e[3*t+3][3*n+2].y+e[3*t+2][3*n+3].y)+-2*(e[3*t+3][3*n].y+e[3*t][3*n+3].y)+3*(e[3*t][3*n+2].y+e[3*t+2][3*n].y)+-1*e[3*t][3*n].y)/9}}this.nodes=e,this.colors=s}paintMesh(t,e){let s=(this.nodes.length-1)/3,r=(this.nodes[0].length-1)/3;if(&quot;bilinear&quot;===this.type||s&lt;2||r&lt;2){let n;for(let o=0;o&lt;s;++o)for(let s=0;s&lt;r;++s){let r=[];for(let t=3*o,e=3*o+4;t&lt;e;++t)r.push(this.nodes[t].slice(3*s,3*s+4));let i=[];i.push(this.colors[o].slice(s,s+2)),i.push(this.colors[o+1].slice(s,s+2)),(n=new m(r,i)).paint(t,e)}}else{let n,o,a,h,l,d,u;const x=s,g=r;s++,r++;let w=new Array(s);for(let t=0;t&lt;s;++t){w[t]=new Array(r);for(let e=0;e&lt;r;++e)w[t][e]=[],w[t][e][0]=this.nodes[3*t][3*e],w[t][e][1]=this.colors[t][e]}for(let t=0;t&lt;s;++t)for(let e=0;e&lt;r;++e)0!==t&amp;&amp;t!==x&amp;&amp;(n=i(w[t-1][e][0],w[t][e][0]),o=i(w[t+1][e][0],w[t][e][0]),w[t][e][2]=c(w[t-1][e][1],w[t][e][1],w[t+1][e][1],n,o)),0!==e&amp;&amp;e!==g&amp;&amp;(n=i(w[t][e-1][0],w[t][e][0]),o=i(w[t][e+1][0],w[t][e][0]),w[t][e][3]=c(w[t][e-1][1],w[t][e][1],w[t][e+1][1],n,o));for(let t=0;t&lt;r;++t){w[0][t][2]=[],w[x][t][2]=[];for(let e=0;e&lt;4;++e)n=i(w[1][t][0],w[0][t][0]),o=i(w[x][t][0],w[x-1][t][0]),w[0][t][2][e]=n&gt;0?2*(w[1][t][1][e]-w[0][t][1][e])/n-w[1][t][2][e]:0,w[x][t][2][e]=o&gt;0?2*(w[x][t][1][e]-w[x-1][t][1][e])/o-w[x-1][t][2][e]:0}for(let t=0;t&lt;s;++t){w[t][0][3]=[],w[t][g][3]=[];for(let e=0;e&lt;4;++e)n=i(w[t][1][0],w[t][0][0]),o=i(w[t][g][0],w[t][g-1][0]),w[t][0][3][e]=n&gt;0?2*(w[t][1][1][e]-w[t][0][1][e])/n-w[t][1][3][e]:0,w[t][g][3][e]=o&gt;0?2*(w[t][g][1][e]-w[t][g-1][1][e])/o-w[t][g-1][3][e]:0}for(let s=0;s&lt;x;++s)for(let r=0;r&lt;g;++r){let n=i(w[s][r][0],w[s+1][r][0]),o=i(w[s][r+1][0],w[s+1][r+1][0]),c=i(w[s][r][0],w[s][r+1][0]),x=i(w[s+1][r][0],w[s+1][r+1][0]),g=[[],[],[],[]];for(let t=0;t&lt;4;++t){(d=[])[0]=w[s][r][1][t],d[1]=w[s+1][r][1][t],d[2]=w[s][r+1][1][t],d[3]=w[s+1][r+1][1][t],d[4]=w[s][r][2][t]*n,d[5]=w[s+1][r][2][t]*n,d[6]=w[s][r+1][2][t]*o,d[7]=w[s+1][r+1][2][t]*o,d[8]=w[s][r][3][t]*c,d[9]=w[s+1][r][3][t]*x,d[10]=w[s][r+1][3][t]*c,d[11]=w[s+1][r+1][3][t]*x,d[12]=0,d[13]=0,d[14]=0,d[15]=0,u=f(d);for(let e=0;e&lt;9;++e){g[t][e]=[];for(let s=0;s&lt;9;++s)g[t][e][s]=p(u,e/8,s/8),g[t][e][s]&gt;255?g[t][e][s]=255:g[t][e][s]&lt;0&amp;&amp;(g[t][e][s]=0)}}h=[];for(let t=3*s,e=3*s+4;t&lt;e;++t)h.push(this.nodes[t].slice(3*r,3*r+4));l=y(h);for(let s=0;s&lt;8;++s)for(let r=0;r&lt;8;++r)(a=new m(l[s][r],[[[g[0][s][r],g[1][s][r],g[2][s][r],g[3][s][r]],[g[0][s][r+1],g[1][s][r+1],g[2][s][r+1],g[3][s][r+1]]],[[g[0][s+1][r],g[1][s+1][r],g[2][s+1][r],g[3][s+1][r]],[g[0][s+1][r+1],g[1][s+1][r+1],g[2][s+1][r+1],g[3][s+1][r+1]]]])).paint(t,e)}}}transform(t){if(t instanceof x)for(let e=0,s=this.nodes.length;e&lt;s;++e)for(let s=0,r=this.nodes[0].length;s&lt;r;++s)this.nodes[e][s]=this.nodes[e][s].add(t);else if(t instanceof g)for(let e=0,s=this.nodes.length;e&lt;s;++e)for(let s=0,r=this.nodes[0].length;s&lt;r;++s)this.nodes[e][s]=this.nodes[e][s].transform(t)}scale(t){for(let e=0,s=this.nodes.length;e&lt;s;++e)for(let s=0,r=this.nodes[0].length;s&lt;r;++s)this.nodes[e][s]=this.nodes[e][s].scale(t)}}document.querySelectorAll(&quot;rect,circle,ellipse,path,text&quot;).forEach((r,n)=&gt;{let o=r.getAttribute(&quot;id&quot;);o||(o=&quot;patchjs_shape&quot;+n,r.setAttribute(&quot;id&quot;,o));const i=r.style.fill.match(/^url\(\s*&quot;?\s*#([^\s&quot;]+)&quot;?\s*\)/),a=r.style.stroke.match(/^url\(\s*&quot;?\s*#([^\s&quot;]+)&quot;?\s*\)/);if(i&amp;&amp;i[1]){const a=document.getElementById(i[1]);if(a&amp;&amp;&quot;meshgradient&quot;===a.nodeName){const i=r.getBBox();let l=document.createElementNS(s,&quot;canvas&quot;);d(l,{width:i.width,height:i.height});const c=l.getContext(&quot;2d&quot;);let u=c.createImageData(i.width,i.height);const f=new b(a);&quot;objectBoundingBox&quot;===a.getAttribute(&quot;gradientUnits&quot;)&amp;&amp;f.scale(new x(i.width,i.height));const p=a.getAttribute(&quot;gradientTransform&quot;);null!=p&amp;&amp;f.transform(h(p)),&quot;userSpaceOnUse&quot;===a.getAttribute(&quot;gradientUnits&quot;)&amp;&amp;f.transform(new x(-i.x,-i.y)),f.paintMesh(u.data,l.width),c.putImageData(u,0,0);const y=document.createElementNS(t,&quot;image&quot;);d(y,{width:i.width,height:i.height,x:i.x,y:i.y});let g=l.toDataURL();y.setAttributeNS(e,&quot;xlink:href&quot;,g),r.parentNode.insertBefore(y,r),r.style.fill=&quot;none&quot;;const w=document.createElementNS(t,&quot;use&quot;);w.setAttributeNS(e,&quot;xlink:href&quot;,&quot;#&quot;+o);const m=&quot;patchjs_clip&quot;+n,M=document.createElementNS(t,&quot;clipPath&quot;);M.setAttribute(&quot;id&quot;,m),M.appendChild(w),r.parentElement.insertBefore(M,r),y.setAttribute(&quot;clip-path&quot;,&quot;url(#&quot;+m+&quot;)&quot;),u=null,l=null,g=null}}if(a&amp;&amp;a[1]){const o=document.getElementById(a[1]);if(o&amp;&amp;&quot;meshgradient&quot;===o.nodeName){const i=parseFloat(r.style.strokeWidth.slice(0,-2))*(parseFloat(r.style.strokeMiterlimit)||parseFloat(r.getAttribute(&quot;stroke-miterlimit&quot;))||1),a=r.getBBox(),l=Math.trunc(a.width+i),c=Math.trunc(a.height+i),u=Math.trunc(a.x-i/2),f=Math.trunc(a.y-i/2);let p=document.createElementNS(s,&quot;canvas&quot;);d(p,{width:l,height:c});const y=p.getContext(&quot;2d&quot;);let g=y.createImageData(l,c);const w=new b(o);&quot;objectBoundingBox&quot;===o.getAttribute(&quot;gradientUnits&quot;)&amp;&amp;w.scale(new x(l,c));const m=o.getAttribute(&quot;gradientTransform&quot;);null!=m&amp;&amp;w.transform(h(m)),&quot;userSpaceOnUse&quot;===o.getAttribute(&quot;gradientUnits&quot;)&amp;&amp;w.transform(new x(-u,-f)),w.paintMesh(g.data,p.width),y.putImageData(g,0,0);const M=document.createElementNS(t,&quot;image&quot;);d(M,{width:l,height:c,x:0,y:0});let S=p.toDataURL();M.setAttributeNS(e,&quot;xlink:href&quot;,S);const k=&quot;pattern_clip&quot;+n,A=document.createElementNS(t,&quot;pattern&quot;);d(A,{id:k,patternUnits:&quot;userSpaceOnUse&quot;,width:l,height:c,x:u,y:f}),A.appendChild(M),o.parentNode.appendChild(A),r.style.stroke=&quot;url(#&quot;+k+&quot;)&quot;,g=null,p=null,S=null}}})}();
</script>
</svg>
